<svg width="31" height="33" viewBox="0 0 31 33" fill="none" xmlns="http://www.w3.org/2000/svg">
<g id="material-symbols:download" clip-path="url(#clip0_138_496)">
<g id="&#240;&#159;&#166;&#134; icon &#34;print&#34;">
<path id="Vector" d="M27.5418 11.3343H9.4585C7.31433 11.3343 5.5835 13.0651 5.5835 15.2093V22.9593H10.7502V28.126H26.2502V22.9593H31.4168V15.2093C31.4168 13.0651 29.686 11.3343 27.5418 11.3343ZM23.6668 25.5426H13.3335V19.0843H23.6668V25.5426ZM27.5418 16.501C26.8314 16.501 26.2502 15.9197 26.2502 15.2093C26.2502 14.4989 26.8314 13.9176 27.5418 13.9176C28.2522 13.9176 28.8335 14.4989 28.8335 15.2093C28.8335 15.9197 28.2522 16.501 27.5418 16.501ZM26.2502 4.87598H10.7502V10.0426H26.2502V4.87598Z" fill="white"/>
</g>
</g>
<defs>
<clipPath id="clip0_138_496">
<rect width="30.7637" height="31.9334" fill="white" transform="matrix(1 -0.000573342 0.000442517 1 0 0.572266)"/>
</clipPath>
</defs>
</svg>
